<?xml version="1.0" encoding="UTF-8"?><svg id="Layer_1" xmlns="http://www.w3.org/2000/svg" xmlns:xlink="http://www.w3.org/1999/xlink" viewBox="0 0 3040 560"><defs><style>.cls-1,.cls-2,.cls-3{fill:none;}.cls-4{clip-path:url(#clippath);}.cls-5{fill:#ff8b00;}.cls-2{stroke-width:37.57px;}.cls-2,.cls-3{stroke:rgba(255,153,31,.5);stroke-linecap:round;stroke-miterlimit:10;}.cls-6{clip-path:url(#clippath-1);}.cls-7{fill:#ffab00;isolation:isolate;opacity:.6;}.cls-3{stroke-width:30.81px;}</style><clipPath id="clippath"><rect class="cls-1" width="3040" height="560"/></clipPath><clipPath id="clippath-1"><rect class="cls-1" y="-519.45" width="3040" height="1710"/></clipPath></defs><g class="cls-4"><g id="_3"><g class="cls-6"><g><rect class="cls-5" y="-519.45" width="3040" height="1710"/><line class="cls-2" x1="913.74" y1="519.98" x2="1656.78" y2="517.51"/><line class="cls-2" x1="1905.23" y1="516.68" x2="2648.82" y2="514.2"/><line class="cls-2" x1="2400.95" y1="515.02" x2="3061.94" y2="512.82"/><line class="cls-2" x1="-573.47" y1="524.93" x2="500.63" y2="521.35"/><line class="cls-2" x1="1326.55" y1="426.35" x2="3309.5" y2="419.75"/><line class="cls-3" x1="2732.55" y1="421.7" x2="3788.01" y2="418.18"/><line class="cls-2" x1="-573.77" y1="432.69" x2="252.46" y2="429.93"/><line class="cls-2" x1="-78.03" y1="431.04" x2="1491.8" y2="425.8"/><line class="cls-3" x1="2717.48" y1="53.94" x2="3786.78" y2="50.38"/><line class="cls-2" x1="168.61" y1="62.39" x2="2479.06" y2="54.7"/><line class="cls-2" x1="1325.33" y1="58.55" x2="1986.89" y2="56.33"/><line class="cls-2" x1="-574.99" y1="64.88" x2="1077.46" y2="59.37"/><line class="cls-2" x1="2646.53" y1="54.14" x2="3222.43" y2="52.21"/><line class="cls-2" x1="747.27" y1="152.72" x2="1573.5" y2="149.97"/><line class="cls-2" x1="2151.86" y1="148.04" x2="3388.65" y2="143.92"/><line class="cls-2" x1="-244.2" y1="156.02" x2="1066.47" y2="151.66"/><line class="cls-3" x1="2767.21" y1="146.02" x2="3787.1" y2="142.62"/><line class="cls-2" x1="1987.5" y1="239.65" x2="3063.4" y2="236.07"/><line class="cls-2" x1="1498.99" y1="241.28" x2="415.62" y2="244.89"/><line class="cls-2" x1="995.44" y1="242.96" x2="1824.73" y2="240.19"/><line class="cls-2" x1="1987.5" y1="239.65" x2="2363.6" y2="238.4"/><line class="cls-3" x1="2565.29" y1="237.76" x2="3787.4" y2="233.68"/><line class="cls-2" x1="-574.39" y1="248.18" x2="251.84" y2="245.43"/><line class="cls-2" x1="417.4" y1="337.13" x2="2208.18" y2="331.16"/><line class="cls-2" x1="2479.98" y1="330.26" x2="3391.82" y2="327.22"/><line class="cls-2" x1="1322.84" y1="334.11" x2="2647.44" y2="329.71"/><line class="cls-2" x1="-574.07" y1="340.44" x2="86.91" y2="338.24"/><circle class="cls-7" cx="1573.5" cy="149.97" r="18.78"/><circle class="cls-7" cx="913.74" cy="519.98" r="18.78"/><circle class="cls-7" cx="1326.55" cy="426.35" r="18.78"/><circle class="cls-7" cx="2865.77" cy="145.66" r="18.78"/><circle class="cls-7" cx="2208.18" cy="331.16" r="18.78"/><circle class="cls-7" cx="168.61" cy="62.39" r="18.78"/><circle class="cls-7" cx="270.62" cy="245.38" r="18.78"/><circle class="cls-7" cx="252.46" cy="429.93" r="18.78"/><circle class="cls-7" cx="995.44" cy="242.96" r="18.78"/><circle class="cls-7" cx="1321.93" cy="58.55" r="18.78"/></g></g></g></g></svg>