<svg width="826" height="568" viewBox="0 0 826 568" fill="none" xmlns="http://www.w3.org/2000/svg">
    <path d="M785 0H41C18.9086 0 1 17.9086 1 40V528C1 550.091 18.9086 568 41 568H785C807.091 568 825 550.091 825 528V40C825 17.9086 807.091 0 785 0Z" fill="url(#paint0_linear_203_2191)"/>
    <g filter="url(#filter0_dd_203_2191)">
        <path d="M707 96H119C107.954 96 99 104.954 99 116V452C99 463.046 107.954 472 119 472H707C718.046 472 727 463.046 727 452V116C727 104.954 718.046 96 707 96Z" fill="white"/>
        <path d="M195 144H147V192H195V144Z" fill="white" fill-opacity="0.01"/>
        <path d="M177 156H165C163.895 156 163 156.895 163 158C163 159.105 163.895 160 165 160H177C178.105 160 179 159.105 179 158C179 156.895 178.105 156 177 156Z" fill="#42526E"/>
        <path d="M177 162H165C163.895 162 163 162.895 163 164C163 165.105 163.895 166 165 166H177C178.105 166 179 165.105 179 164C179 162.895 178.105 162 177 162Z" fill="#42526E"/>
        <path d="M169 168H165C163.895 168 163 168.895 163 170C163 171.105 163.895 172 165 172H169C170.105 172 171 171.105 171 170C171 168.895 170.105 168 169 168Z" fill="#42526E"/>
        <path d="M161 152V184H181V152H161ZM157 151.98C157 149.784 158.794 148 161.012 148H180.988C183.204 148 185 149.796 185 151.98V184.02C185 186.218 183.206 188 180.988 188H161.012C159.953 188.002 158.936 187.584 158.185 186.838C157.433 186.092 157.007 185.079 157 184.02V151.98Z" fill="#42526E"/>
        <path d="M457 144H227C218.163 144 211 151.163 211 160C211 168.837 218.163 176 227 176H457C465.837 176 473 168.837 473 160C473 151.163 465.837 144 457 144Z" fill="#DEEBFF"/>
        <path d="M539 192H223C216.373 192 211 197.373 211 204C211 210.627 216.373 216 223 216H539C545.627 216 551 210.627 551 204C551 197.373 545.627 192 539 192Z" fill="#DFE1E6"/>
        <path d="M195 248H147V296H195V248Z" fill="white" fill-opacity="0.01"/>
        <path d="M177 260H165C163.895 260 163 260.896 163 262C163 263.104 163.895 264 165 264H177C178.105 264 179 263.104 179 262C179 260.896 178.105 260 177 260Z" fill="#42526E"/>
        <path d="M177 266H165C163.895 266 163 266.896 163 268C163 269.104 163.895 270 165 270H177C178.105 270 179 269.104 179 268C179 266.896 178.105 266 177 266Z" fill="#42526E"/>
        <path d="M169 272H165C163.895 272 163 272.896 163 274C163 275.104 163.895 276 165 276H169C170.105 276 171 275.104 171 274C171 272.896 170.105 272 169 272Z" fill="#42526E"/>
        <path d="M161 256V288H181V256H161ZM157 255.98C157 253.784 158.794 252 161.012 252H180.988C183.204 252 185 253.796 185 255.98V288.02C185 290.218 183.206 292 180.988 292H161.012C159.953 292.002 158.936 291.584 158.185 290.838C157.433 290.092 157.007 289.078 157 288.02V255.98Z" fill="#42526E"/>
        <path d="M407 248H227C218.163 248 211 255.163 211 264C211 272.837 218.163 280 227 280H407C415.837 280 423 272.837 423 264C423 255.163 415.837 248 407 248Z" fill="#DEEBFF"/>
        <path d="M667 296H223C216.373 296 211 301.373 211 308C211 314.627 216.373 320 223 320H667C673.627 320 679 314.627 679 308C679 301.373 673.627 296 667 296Z" fill="#DFE1E6"/>
        <path d="M195 352H147V400H195V352Z" fill="white" fill-opacity="0.01"/>
        <path d="M177 364H165C163.895 364 163 364.896 163 366C163 367.104 163.895 368 165 368H177C178.105 368 179 367.104 179 366C179 364.896 178.105 364 177 364Z" fill="#42526E"/>
        <path d="M177 370H165C163.895 370 163 370.896 163 372C163 373.104 163.895 374 165 374H177C178.105 374 179 373.104 179 372C179 370.896 178.105 370 177 370Z" fill="#42526E"/>
        <path d="M169 376H165C163.895 376 163 376.896 163 378C163 379.104 163.895 380 165 380H169C170.105 380 171 379.104 171 378C171 376.896 170.105 376 169 376Z" fill="#42526E"/>
        <path d="M161 360V392H181V360H161ZM157 359.98C157 357.784 158.794 356 161.012 356H180.988C183.204 356 185 357.796 185 359.98V392.02C185 394.218 183.206 396 180.988 396H161.012C159.953 396.002 158.936 395.584 158.185 394.838C157.433 394.092 157.007 393.078 157 392.02V359.98Z" fill="#42526E"/>
        <path d="M509 352H227C218.163 352 211 359.163 211 368C211 376.837 218.163 384 227 384H509C517.837 384 525 376.837 525 368C525 359.163 517.837 352 509 352Z" fill="#DEEBFF"/>
        <path d="M613 400H223C216.373 400 211 405.373 211 412C211 418.627 216.373 424 223 424H613C619.627 424 625 418.627 625 412C625 405.373 619.627 400 613 400Z" fill="#DFE1E6"/>
    </g>
    <defs>
        <filter id="filter0_dd_203_2191" x="71" y="86" width="684" height="432" filterUnits="userSpaceOnUse" color-interpolation-filters="sRGB">
            <feFlood flood-opacity="0" result="BackgroundImageFix"/>
            <feColorMatrix in="SourceAlpha" type="matrix" values="0 0 0 0 0 0 0 0 0 0 0 0 0 0 0 0 0 0 127 0" result="hardAlpha"/>
            <feOffset/>
            <feGaussianBlur stdDeviation="0.5"/>
            <feColorMatrix type="matrix" values="0 0 0 0 0.0352941 0 0 0 0 0.117647 0 0 0 0 0.258824 0 0 0 0.31 0"/>
            <feBlend mode="normal" in2="BackgroundImageFix" result="effect1_dropShadow_203_2191"/>
            <feColorMatrix in="SourceAlpha" type="matrix" values="0 0 0 0 0 0 0 0 0 0 0 0 0 0 0 0 0 0 127 0" result="hardAlpha"/>
            <feOffset dy="18"/>
            <feGaussianBlur stdDeviation="14"/>
            <feColorMatrix type="matrix" values="0 0 0 0 0.0352941 0 0 0 0 0.117647 0 0 0 0 0.258824 0 0 0 0.15 0"/>
            <feBlend mode="normal" in2="effect1_dropShadow_203_2191" result="effect2_dropShadow_203_2191"/>
            <feBlend mode="normal" in="SourceGraphic" in2="effect2_dropShadow_203_2191" result="shape"/>
        </filter>
        <linearGradient id="paint0_linear_203_2191" x1="1.00001" y1="401.816" x2="825" y2="401.816" gradientUnits="userSpaceOnUse">
            <stop stop-color="#0052CC"/>
            <stop offset="1" stop-color="#4C9AFF"/>
        </linearGradient>
    </defs>
</svg>